<svg width="24" height="18" viewBox="0 0 24 18" fill="none" xmlns="http://www.w3.org/2000/svg">
<path d="M22.5 0C22.76 0 23.0125 0.0199994 23.2625 0.0574994C22.2875 0.755 21.405 1.5775 20.6425 2.5H5C4.33696 2.5 3.70107 2.76339 3.23223 3.23223C2.76339 3.70108 2.5 4.33696 2.5 5V8.75C2.5 12.2675 6.4475 15 13.75 15C15.1493 15.0094 16.5465 14.8931 17.925 14.6525C18.1325 15.475 18.4175 16.265 18.765 17.02C17.114 17.3499 15.4336 17.5107 13.75 17.5C5.22 17.5 0 13.885 0 8.75V5C0 3.67392 0.526784 2.40215 1.46447 1.46447C2.40215 0.526785 3.67392 0 5 0H22.5Z" fill="#377DFF"/>
</svg>
