<svg width="13" height="13" viewBox="0 0 13 13" fill="none" xmlns="http://www.w3.org/2000/svg">
<path d="M12.5 6.25C12.5 7.9076 11.8415 9.49732 10.6694 10.6694C9.49731 11.8415 7.9076 12.5 6.25 12.5C4.5924 12.5 3.00268 11.8415 1.83058 10.6694C0.65848 9.49732 0 7.9076 0 6.25C0 4.5924 0.65848 3.00269 1.83058 1.83058C3.00268 0.65848 4.5924 0 6.25 0C7.9076 0 9.49731 0.65848 10.6694 1.83058C11.8415 3.00269 12.5 4.5924 12.5 6.25ZM6.25 2.5C5.25544 2.5 4.30161 2.89509 3.59835 3.59835C2.89509 4.30161 2.5 5.25544 2.5 6.25C2.5 7.24456 2.89509 8.19839 3.59835 8.90165C4.30161 9.60491 5.25544 10 6.25 10C7.24456 10 8.19839 9.60491 8.90165 8.90165C9.60491 8.19839 10 7.24456 10 6.25C10 5.25544 9.60491 4.30161 8.90165 3.59835C8.19839 2.89509 7.24456 2.5 6.25 2.5Z" fill="#377DFF"/>
</svg>
