<svg width="17" height="17" viewBox="0 0 17 17" fill="none" xmlns="http://www.w3.org/2000/svg">
<path fill-rule="evenodd" clip-rule="evenodd" d="M0.4375 2C0.4375 1.5856 0.60212 1.18817 0.895146 0.895146C1.18817 0.60212 1.5856 0.4375 2 0.4375H14.5C14.9144 0.4375 15.3118 0.60212 15.6049 0.895146C15.8979 1.18817 16.0625 1.5856 16.0625 2C16.0625 2.4144 15.8979 2.81183 15.6049 3.10486C15.3118 3.39788 14.9144 3.5625 14.5 3.5625H3.5625V14.5C3.5625 14.9144 3.39788 15.3118 3.10486 15.6049C2.81183 15.8979 2.4144 16.0625 2 16.0625C1.5856 16.0625 1.18817 15.8979 0.895146 15.6049C0.60212 15.3118 0.4375 14.9144 0.4375 14.5V2Z" fill="#377DFF"/>
</svg>
