<svg width="18" height="18" viewBox="0 0 18 18" fill="none" xmlns="http://www.w3.org/2000/svg">
<path d="M8.75 0C9.89907 -1.71224e-08 11.0369 0.226325 12.0985 0.666054C13.1601 1.10578 14.1247 1.7503 14.9372 2.56282C15.7497 3.37533 16.3942 4.33992 16.8339 5.40152C17.2737 6.46312 17.5 7.60093 17.5 8.75C17.5 9.89907 17.2737 11.0369 16.8339 12.0985C16.3942 13.1601 15.7497 14.1247 14.9372 14.9372C14.1247 15.7497 13.1601 16.3942 12.0985 16.8339C11.0369 17.2737 9.89907 17.5 8.75 17.5C6.42936 17.5 4.20376 16.5781 2.56282 14.9372C0.921873 13.2962 0 11.0706 0 8.75C0 6.42936 0.921873 4.20376 2.56282 2.56282C4.20376 0.921872 6.42936 3.45803e-08 8.75 0ZM8.75 2.5C7.0924 2.5 5.50269 3.15848 4.33058 4.33058C3.15848 5.50269 2.5 7.0924 2.5 8.75C2.5 10.4076 3.15848 11.9973 4.33058 13.1694C5.50269 14.3415 7.0924 15 8.75 15C10.4076 15 11.9973 14.3415 13.1694 13.1694C14.3415 11.9973 15 10.4076 15 8.75C15 7.0924 14.3415 5.50269 13.1694 4.33058C11.9973 3.15848 10.4076 2.5 8.75 2.5Z" fill="#377DFF"/>
</svg>
