<svg width="16" height="28" viewBox="0 0 16 28" fill="none" xmlns="http://www.w3.org/2000/svg">
<path fill-rule="evenodd" clip-rule="evenodd" d="M0.672721 1.42208C0.498109 1.59625 0.359575 1.80316 0.265051 2.03096C0.170527 2.25875 0.12187 2.50295 0.12187 2.74958C0.12187 2.99621 0.170527 3.24041 0.265051 3.46821C0.359574 3.696 0.498109 3.90291 0.672721 4.07708L10.599 13.9996L0.672719 23.9221C0.49839 24.0964 0.360104 24.3034 0.265757 24.5311C0.17141 24.7589 0.122853 25.003 0.122852 25.2496C0.122852 25.4961 0.17141 25.7402 0.265757 25.968C0.360104 26.1958 0.498389 26.4028 0.672719 26.5771C0.847049 26.7514 1.05401 26.8897 1.28178 26.984C1.50955 27.0784 1.75368 27.127 2.00022 27.127C2.24676 27.127 2.49089 27.0784 2.71866 26.984C2.94643 26.8897 3.15339 26.7514 3.32772 26.5771L14.5777 15.3271C14.7523 15.1529 14.8909 14.946 14.9854 14.7182C15.0799 14.4904 15.1286 14.2462 15.1286 13.9996C15.1286 13.753 15.0799 13.5088 14.9854 13.281C14.8909 13.0532 14.7523 12.8463 14.5777 12.6721L3.32772 1.42208C3.15355 1.24747 2.94664 1.10893 2.71885 1.01441C2.49105 0.919886 2.24685 0.87123 2.00022 0.87123C1.75359 0.87123 1.50939 0.919886 1.2816 1.01441C1.0538 1.10893 0.846893 1.24747 0.672721 1.42208Z" fill="#377DFF"/>
</svg>
