<svg width="21" height="23" viewBox="0 0 21 23" fill="none" xmlns="http://www.w3.org/2000/svg">
<path d="M0.259857 6.80008L1.15486 7.67508C1.63109 8.14073 2.00948 8.69685 2.26782 9.31076C2.52616 9.92468 2.65924 10.584 2.65924 11.2501C2.65924 11.9161 2.52616 12.5755 2.26782 13.1894C2.00948 13.8033 1.63109 14.3594 1.15486 14.8251L0.259857 15.7001C0.584857 16.4776 0.989859 17.2101 1.46736 17.8851L2.45486 17.5876C3.10726 17.3921 3.79272 17.332 4.4692 17.4109C5.14567 17.4897 5.7989 17.706 6.38881 18.0464C6.97872 18.3867 7.49287 18.844 7.89973 19.3902C8.3066 19.9364 8.59759 20.5599 8.75486 21.2226L9.04486 22.4326C9.84477 22.5237 10.6524 22.5237 11.4524 22.4326L11.7399 21.2226C11.8971 20.5599 12.1881 19.9364 12.595 19.3902C13.0018 18.844 13.516 18.3867 14.1059 18.0464C14.6958 17.706 15.349 17.4897 16.0255 17.4109C16.702 17.332 17.3875 17.3921 18.0399 17.5876L19.0299 17.8851C19.5049 17.2101 19.9124 16.4776 20.2374 15.7001L19.3424 14.8251C18.8661 14.3594 18.4877 13.8033 18.2294 13.1894C17.9711 12.5755 17.838 11.9161 17.838 11.2501C17.838 10.584 17.9711 9.92468 18.2294 9.31076C18.4877 8.69685 18.8661 8.14073 19.3424 7.67508L20.2374 6.80008C19.9165 6.02954 19.5115 5.29676 19.0299 4.61508L18.0399 4.91258C17.3875 5.10806 16.702 5.1682 16.0255 5.08931C15.349 5.01041 14.6958 4.79415 14.1059 4.45378C13.516 4.11341 13.0018 3.65612 12.595 3.10994C12.1881 2.56377 11.8971 1.94023 11.7399 1.27758L11.4524 0.0675796C10.6524 -0.0235031 9.84477 -0.0235031 9.04486 0.0675796L8.75736 1.27758C8.60009 1.94023 8.3091 2.56377 7.90224 3.10994C7.49537 3.65612 6.98122 4.11341 6.39131 4.45378C5.8014 4.79415 5.14817 5.01041 4.4717 5.08931C3.79522 5.1682 3.10976 5.10806 2.45736 4.91258L1.46736 4.61508C0.989859 5.29008 0.582357 6.02258 0.259857 6.80008ZM10.2474 13.7501C9.58432 13.7501 8.94843 13.4867 8.47959 13.0178C8.01075 12.549 7.74736 11.9131 7.74736 11.2501C7.74736 10.587 8.01075 9.95115 8.47959 9.48231C8.94843 9.01347 9.58432 8.75008 10.2474 8.75008C10.9104 8.75008 11.5463 9.01347 12.0151 9.48231C12.484 9.95115 12.7474 10.587 12.7474 11.2501C12.7474 11.9131 12.484 12.549 12.0151 13.0178C11.5463 13.4867 10.9104 13.7501 10.2474 13.7501Z" fill="#377DFF"/>
</svg>
