<svg width="17" height="17" viewBox="0 0 17 17" fill="none" xmlns="http://www.w3.org/2000/svg">
<path fill-rule="evenodd" clip-rule="evenodd" d="M15 0.9375C15.4144 0.9375 15.8118 1.10212 16.1049 1.39515C16.3979 1.68817 16.5625 2.0856 16.5625 2.5V15C16.5625 15.4144 16.3979 15.8118 16.1049 16.1049C15.8118 16.3979 15.4144 16.5625 15 16.5625H2.5C2.0856 16.5625 1.68817 16.3979 1.39515 16.1049C1.10212 15.8118 0.9375 15.4144 0.9375 15C0.9375 14.5856 1.10212 14.1882 1.39515 13.8951C1.68817 13.6021 2.0856 13.4375 2.5 13.4375H13.4375V2.5C13.4375 2.0856 13.6021 1.68817 13.8951 1.39515C14.1882 1.10212 14.5856 0.9375 15 0.9375Z" fill="#377DFF"/>
</svg>
